%TF.GenerationSoftware,KiCad,Pcbnew,7.0.2*%
%TF.CreationDate,2023-08-01T13:01:46+02:00*%
%TF.ProjectId,jv_thesis,6a765f74-6865-4736-9973-2e6b69636164,rev?*%
%TF.SameCoordinates,Original*%
%TF.FileFunction,Paste,Top*%
%TF.FilePolarity,Positive*%
%FSLAX46Y46*%
G04 Gerber Fmt 4.6, Leading zero omitted, Abs format (unit mm)*
G04 Created by KiCad (PCBNEW 7.0.2) date 2023-08-01 13:01:46*
%MOMM*%
%LPD*%
G01*
G04 APERTURE LIST*
G04 Aperture macros list*
%AMRoundRect*
0 Rectangle with rounded corners*
0 $1 Rounding radius*
0 $2 $3 $4 $5 $6 $7 $8 $9 X,Y pos of 4 corners*
0 Add a 4 corners polygon primitive as box body*
4,1,4,$2,$3,$4,$5,$6,$7,$8,$9,$2,$3,0*
0 Add four circle primitives for the rounded corners*
1,1,$1+$1,$2,$3*
1,1,$1+$1,$4,$5*
1,1,$1+$1,$6,$7*
1,1,$1+$1,$8,$9*
0 Add four rect primitives between the rounded corners*
20,1,$1+$1,$2,$3,$4,$5,0*
20,1,$1+$1,$4,$5,$6,$7,0*
20,1,$1+$1,$6,$7,$8,$9,0*
20,1,$1+$1,$8,$9,$2,$3,0*%
%AMFreePoly0*
4,1,57,0.194009,0.449029,0.214144,0.449029,0.231582,0.438960,0.251037,0.433748,0.265277,0.419507,0.282717,0.409439,0.409439,0.282717,0.419508,0.265276,0.433748,0.251037,0.438960,0.231585,0.449030,0.214144,0.449030,0.194005,0.454242,0.174554,0.454242,-0.174554,0.449030,-0.194005,0.449030,-0.214144,0.438960,-0.231585,0.433748,-0.251037,0.419508,-0.265276,0.409439,-0.282717,
0.282717,-0.409439,0.265277,-0.419507,0.251037,-0.433748,0.231582,-0.438960,0.214144,-0.449029,0.194009,-0.449029,0.174554,-0.454242,-0.174554,-0.454242,-0.194005,-0.449030,-0.214144,-0.449030,-0.231585,-0.438960,-0.251037,-0.433748,-0.265276,-0.419508,-0.282717,-0.409439,-0.409439,-0.282717,-0.419507,-0.265277,-0.433748,-0.251037,-0.438960,-0.231582,-0.449029,-0.214144,-0.449029,-0.194008,
-0.454242,-0.174554,-0.454242,0.174554,-0.449029,0.194008,-0.449029,0.214144,-0.438960,0.231582,-0.433748,0.251037,-0.419507,0.265277,-0.409439,0.282717,-0.282717,0.409439,-0.265276,0.419508,-0.251037,0.433748,-0.231585,0.438960,-0.214144,0.449030,-0.194005,0.449030,-0.174554,0.454242,0.174554,0.454242,0.194009,0.449029,0.194009,0.449029,$1*%
G04 Aperture macros list end*
%ADD10C,0.010000*%
%ADD11RoundRect,0.250000X-0.337500X-0.475000X0.337500X-0.475000X0.337500X0.475000X-0.337500X0.475000X0*%
%ADD12RoundRect,0.250000X-0.450000X0.350000X-0.450000X-0.350000X0.450000X-0.350000X0.450000X0.350000X0*%
%ADD13RoundRect,0.250000X-1.450000X0.537500X-1.450000X-0.537500X1.450000X-0.537500X1.450000X0.537500X0*%
%ADD14RoundRect,0.250000X0.475000X-0.337500X0.475000X0.337500X-0.475000X0.337500X-0.475000X-0.337500X0*%
%ADD15RoundRect,0.250000X0.450000X-0.350000X0.450000X0.350000X-0.450000X0.350000X-0.450000X-0.350000X0*%
%ADD16RoundRect,0.250000X0.325000X0.450000X-0.325000X0.450000X-0.325000X-0.450000X0.325000X-0.450000X0*%
%ADD17R,0.850000X0.750000*%
%ADD18RoundRect,0.250000X-0.350000X-0.450000X0.350000X-0.450000X0.350000X0.450000X-0.350000X0.450000X0*%
%ADD19RoundRect,0.250000X-0.325000X-0.450000X0.325000X-0.450000X0.325000X0.450000X-0.325000X0.450000X0*%
%ADD20R,0.200000X0.700000*%
%ADD21R,1.900000X0.800000*%
%ADD22RoundRect,0.250000X-0.475000X0.337500X-0.475000X-0.337500X0.475000X-0.337500X0.475000X0.337500X0*%
%ADD23RoundRect,0.250000X0.450000X-0.325000X0.450000X0.325000X-0.450000X0.325000X-0.450000X-0.325000X0*%
%ADD24R,0.863600X0.965200*%
%ADD25RoundRect,0.250000X-0.250000X-0.250000X0.250000X-0.250000X0.250000X0.250000X-0.250000X0.250000X0*%
%ADD26R,1.295400X1.092200*%
%ADD27R,0.930000X0.940000*%
%ADD28RoundRect,0.250000X0.337500X0.475000X-0.337500X0.475000X-0.337500X-0.475000X0.337500X-0.475000X0*%
%ADD29R,0.280000X2.600000*%
%ADD30R,1.300000X1.400000*%
%ADD31R,1.300000X2.200000*%
%ADD32RoundRect,0.075000X-0.662500X-0.075000X0.662500X-0.075000X0.662500X0.075000X-0.662500X0.075000X0*%
%ADD33RoundRect,0.075000X-0.075000X-0.662500X0.075000X-0.662500X0.075000X0.662500X-0.075000X0.662500X0*%
%ADD34RoundRect,0.250000X0.425000X-0.537500X0.425000X0.537500X-0.425000X0.537500X-0.425000X-0.537500X0*%
%ADD35RoundRect,0.150000X0.150000X-0.512500X0.150000X0.512500X-0.150000X0.512500X-0.150000X-0.512500X0*%
%ADD36RoundRect,0.250000X-0.650000X0.412500X-0.650000X-0.412500X0.650000X-0.412500X0.650000X0.412500X0*%
%ADD37RoundRect,0.250000X-1.750000X-1.000000X1.750000X-1.000000X1.750000X1.000000X-1.750000X1.000000X0*%
%ADD38RoundRect,0.150000X0.512500X0.150000X-0.512500X0.150000X-0.512500X-0.150000X0.512500X-0.150000X0*%
%ADD39RoundRect,0.250000X-0.537500X-0.425000X0.537500X-0.425000X0.537500X0.425000X-0.537500X0.425000X0*%
%ADD40RoundRect,0.250000X-0.450000X0.325000X-0.450000X-0.325000X0.450000X-0.325000X0.450000X0.325000X0*%
%ADD41RoundRect,0.250000X0.350000X0.450000X-0.350000X0.450000X-0.350000X-0.450000X0.350000X-0.450000X0*%
%ADD42R,0.940000X0.930000*%
%ADD43RoundRect,0.250000X0.537500X0.425000X-0.537500X0.425000X-0.537500X-0.425000X0.537500X-0.425000X0*%
%ADD44R,1.500000X0.450000*%
%ADD45RoundRect,0.250001X-0.462499X-0.624999X0.462499X-0.624999X0.462499X0.624999X-0.462499X0.624999X0*%
%ADD46R,1.600200X2.311400*%
%ADD47R,0.800000X1.900000*%
%ADD48FreePoly0,0.000000*%
%ADD49RoundRect,0.062500X-0.325000X-0.062500X0.325000X-0.062500X0.325000X0.062500X-0.325000X0.062500X0*%
%ADD50RoundRect,0.062500X-0.062500X-0.325000X0.062500X-0.325000X0.062500X0.325000X-0.062500X0.325000X0*%
%ADD51RoundRect,0.040000X0.160000X-0.380000X0.160000X0.380000X-0.160000X0.380000X-0.160000X-0.380000X0*%
%ADD52RoundRect,0.040000X-0.160000X0.380000X-0.160000X-0.380000X0.160000X-0.380000X0.160000X0.380000X0*%
%ADD53R,1.400000X1.600000*%
%ADD54R,1.350000X0.400000*%
G04 APERTURE END LIST*
%TO.C,U4*%
D10*
X130532000Y-49086800D02*
X128872000Y-49086800D01*
X128872000Y-47946800D01*
X130532000Y-47946800D01*
X130532000Y-49086800D01*
G36*
X130532000Y-49086800D02*
G01*
X128872000Y-49086800D01*
X128872000Y-47946800D01*
X130532000Y-47946800D01*
X130532000Y-49086800D01*
G37*
%TD*%
D11*
%TO.C,C51*%
X185123000Y-131826000D03*
X187198000Y-131826000D03*
%TD*%
D12*
%TO.C,R39*%
X158877000Y-129683000D03*
X158877000Y-131683000D03*
%TD*%
D13*
%TO.C,C38*%
X70231000Y-48895000D03*
X70231000Y-53170000D03*
%TD*%
D12*
%TO.C,R54*%
X103390200Y-128672000D03*
X103390200Y-130672000D03*
%TD*%
D14*
%TO.C,C59*%
X128397000Y-43942000D03*
X128397000Y-41867000D03*
%TD*%
D15*
%TO.C,R12*%
X123190000Y-84582000D03*
X123190000Y-82582000D03*
%TD*%
D14*
%TO.C,C64*%
X184940000Y-113767500D03*
X184940000Y-111692500D03*
%TD*%
D16*
%TO.C,D3*%
X78773700Y-73679000D03*
X76723700Y-73679000D03*
%TD*%
D17*
%TO.C,CRYSTAL2*%
X88385700Y-94351000D03*
X89735700Y-94351000D03*
X89735700Y-93301000D03*
X88385700Y-93301000D03*
%TD*%
D12*
%TO.C,R42*%
X171704000Y-129683000D03*
X171704000Y-131683000D03*
%TD*%
D18*
%TO.C,R59*%
X97294200Y-147944000D03*
X99294200Y-147944000D03*
%TD*%
D12*
%TO.C,R66*%
X96393000Y-109760000D03*
X96393000Y-111760000D03*
%TD*%
D19*
%TO.C,D1*%
X199785700Y-92495000D03*
X201835700Y-92495000D03*
%TD*%
D15*
%TO.C,R2*%
X144972200Y-148466000D03*
X144972200Y-146466000D03*
%TD*%
D18*
%TO.C,R57*%
X107454200Y-147944000D03*
X109454200Y-147944000D03*
%TD*%
D20*
%TO.C,Module1*%
X170843700Y-86689000D03*
X170843700Y-83609000D03*
X171243700Y-86689000D03*
X171243700Y-83609000D03*
X171643700Y-86689000D03*
X171643700Y-83609000D03*
X172043700Y-86689000D03*
X172043700Y-83609000D03*
X172443700Y-86689000D03*
X172443700Y-83609000D03*
X172843700Y-86689000D03*
X172843700Y-83609000D03*
X173243700Y-86689000D03*
X173243700Y-83609000D03*
X173643700Y-86689000D03*
X173643700Y-83609000D03*
X174043700Y-86689000D03*
X174043700Y-83609000D03*
X174443700Y-86689000D03*
X174443700Y-83609000D03*
X174843700Y-86689000D03*
X174843700Y-83609000D03*
X175243700Y-86689000D03*
X175243700Y-83609000D03*
X175643700Y-86689000D03*
X175643700Y-83609000D03*
X176043700Y-86689000D03*
X176043700Y-83609000D03*
X176443700Y-86689000D03*
X176443700Y-83609000D03*
X176843700Y-86689000D03*
X176843700Y-83609000D03*
X177243700Y-86689000D03*
X177243700Y-83609000D03*
X177643700Y-86689000D03*
X177643700Y-83609000D03*
X178043700Y-86689000D03*
X178043700Y-83609000D03*
X178443700Y-86689000D03*
X178443700Y-83609000D03*
X178843700Y-86689000D03*
X178843700Y-83609000D03*
X179243700Y-86689000D03*
X179243700Y-83609000D03*
X179643700Y-86689000D03*
X179643700Y-83609000D03*
X180043700Y-86689000D03*
X180043700Y-83609000D03*
X180443700Y-86689000D03*
X180443700Y-83609000D03*
X180843700Y-86689000D03*
X180843700Y-83609000D03*
X181243700Y-86689000D03*
X181243700Y-83609000D03*
X181643700Y-86689000D03*
X181643700Y-83609000D03*
X182043700Y-86689000D03*
X182043700Y-83609000D03*
X182443700Y-86689000D03*
X182443700Y-83609000D03*
X182843700Y-86689000D03*
X182843700Y-83609000D03*
X183243700Y-86689000D03*
X183243700Y-83609000D03*
X183643700Y-86689000D03*
X183643700Y-83609000D03*
X184043700Y-86689000D03*
X184043700Y-83609000D03*
X184443700Y-86689000D03*
X184443700Y-83609000D03*
X184843700Y-86689000D03*
X184843700Y-83609000D03*
X185243700Y-86689000D03*
X185243700Y-83609000D03*
X185643700Y-86689000D03*
X185643700Y-83609000D03*
X186043700Y-86689000D03*
X186043700Y-83609000D03*
X186443700Y-86689000D03*
X186443700Y-83609000D03*
X186843700Y-86689000D03*
X186843700Y-83609000D03*
X187243700Y-86689000D03*
X187243700Y-83609000D03*
X187643700Y-86689000D03*
X187643700Y-83609000D03*
X188043700Y-86689000D03*
X188043700Y-83609000D03*
X188443700Y-86689000D03*
X188443700Y-83609000D03*
X188843700Y-86689000D03*
X188843700Y-83609000D03*
X189243700Y-86689000D03*
X189243700Y-83609000D03*
X189643700Y-86689000D03*
X189643700Y-83609000D03*
X190043700Y-86689000D03*
X190043700Y-83609000D03*
X190443700Y-86689000D03*
X190443700Y-83609000D03*
X170843700Y-52769000D03*
X170843700Y-49689000D03*
X171243700Y-52769000D03*
X171243700Y-49689000D03*
X171643700Y-52769000D03*
X171643700Y-49689000D03*
X172043700Y-52769000D03*
X172043700Y-49689000D03*
X172443700Y-52769000D03*
X172443700Y-49689000D03*
X172843700Y-52769000D03*
X172843700Y-49689000D03*
X173243700Y-52769000D03*
X173243700Y-49689000D03*
X173643700Y-52769000D03*
X173643700Y-49689000D03*
X174043700Y-52769000D03*
X174043700Y-49689000D03*
X174443700Y-52769000D03*
X174443700Y-49689000D03*
X174843700Y-52769000D03*
X174843700Y-49689000D03*
X175243700Y-52769000D03*
X175243700Y-49689000D03*
X175643700Y-52769000D03*
X175643700Y-49689000D03*
X176043700Y-52769000D03*
X176043700Y-49689000D03*
X176443700Y-52769000D03*
X176443700Y-49689000D03*
X176843700Y-52769000D03*
X176843700Y-49689000D03*
X177243700Y-52769000D03*
X177243700Y-49689000D03*
X177643700Y-52769000D03*
X177643700Y-49689000D03*
X178043700Y-52769000D03*
X178043700Y-49689000D03*
X178443700Y-52769000D03*
X178443700Y-49689000D03*
X178843700Y-52769000D03*
X178843700Y-49689000D03*
X179243700Y-52769000D03*
X179243700Y-49689000D03*
X179643700Y-52769000D03*
X179643700Y-49689000D03*
X180043700Y-52769000D03*
X180043700Y-49689000D03*
X180443700Y-52769000D03*
X180443700Y-49689000D03*
X180843700Y-52769000D03*
X180843700Y-49689000D03*
X181243700Y-52769000D03*
X181243700Y-49689000D03*
X181643700Y-52769000D03*
X181643700Y-49689000D03*
X182043700Y-52769000D03*
X182043700Y-49689000D03*
X182443700Y-52769000D03*
X182443700Y-49689000D03*
X182843700Y-52769000D03*
X182843700Y-49689000D03*
X183243700Y-52769000D03*
X183243700Y-49689000D03*
X183643700Y-52769000D03*
X183643700Y-49689000D03*
X184043700Y-52769000D03*
X184043700Y-49689000D03*
X184443700Y-52769000D03*
X184443700Y-49689000D03*
X184843700Y-52769000D03*
X184843700Y-49689000D03*
X185243700Y-52769000D03*
X185243700Y-49689000D03*
X185643700Y-52769000D03*
X185643700Y-49689000D03*
X186043700Y-52769000D03*
X186043700Y-49689000D03*
X186443700Y-52769000D03*
X186443700Y-49689000D03*
X186843700Y-52769000D03*
X186843700Y-49689000D03*
X187243700Y-52769000D03*
X187243700Y-49689000D03*
X187643700Y-52769000D03*
X187643700Y-49689000D03*
X188043700Y-52769000D03*
X188043700Y-49689000D03*
X188443700Y-52769000D03*
X188443700Y-49689000D03*
X188843700Y-52769000D03*
X188843700Y-49689000D03*
X189243700Y-52769000D03*
X189243700Y-49689000D03*
X189643700Y-52769000D03*
X189643700Y-49689000D03*
X190043700Y-52769000D03*
X190043700Y-49689000D03*
X190443700Y-52769000D03*
X190443700Y-49689000D03*
%TD*%
D12*
%TO.C,R68*%
X81755700Y-138031000D03*
X81755700Y-140031000D03*
%TD*%
D15*
%TO.C,R1*%
X143345700Y-94335000D03*
X143345700Y-92335000D03*
%TD*%
%TO.C,R22*%
X123862900Y-101995800D03*
X123862900Y-99995800D03*
%TD*%
D21*
%TO.C,U9*%
X168978700Y-39323000D03*
X168978700Y-41223000D03*
X171978700Y-40273000D03*
%TD*%
D18*
%TO.C,R52*%
X117630200Y-147944000D03*
X119630200Y-147944000D03*
%TD*%
D22*
%TO.C,C45*%
X89789000Y-98552000D03*
X89789000Y-100627000D03*
%TD*%
D18*
%TO.C,R9*%
X112165700Y-70109000D03*
X114165700Y-70109000D03*
%TD*%
D12*
%TO.C,R56*%
X92722200Y-128656000D03*
X92722200Y-130656000D03*
%TD*%
%TO.C,R26*%
X108458000Y-86519000D03*
X108458000Y-88519000D03*
%TD*%
D23*
%TO.C,D2*%
X115570000Y-54247000D03*
X115570000Y-52197000D03*
%TD*%
D12*
%TO.C,R77*%
X81755700Y-108059000D03*
X81755700Y-110059000D03*
%TD*%
D15*
%TO.C,R27*%
X105664000Y-101949000D03*
X105664000Y-99949000D03*
%TD*%
D24*
%TO.C,C40*%
X89916000Y-96393000D03*
X88315800Y-96393000D03*
%TD*%
D12*
%TO.C,R76*%
X71595700Y-117695000D03*
X71595700Y-119695000D03*
%TD*%
D21*
%TO.C,U2*%
X87986500Y-67757000D03*
X87986500Y-69657000D03*
X90986500Y-68707000D03*
%TD*%
D22*
%TO.C,C58*%
X161378700Y-39507500D03*
X161378700Y-41582500D03*
%TD*%
D25*
%TO.C,D4*%
X116661700Y-70348000D03*
X119161700Y-70348000D03*
%TD*%
D26*
%TO.C,CRYSTAL1*%
X140995700Y-106404999D03*
X138695700Y-106404999D03*
X138695700Y-108205001D03*
X140995700Y-108205001D03*
%TD*%
D18*
%TO.C,R31*%
X83050000Y-90200000D03*
X85050000Y-90200000D03*
%TD*%
D12*
%TO.C,R63*%
X174244000Y-129699000D03*
X174244000Y-131699000D03*
%TD*%
D27*
%TO.C,C41*%
X136409700Y-108275999D03*
X136409700Y-106785999D03*
%TD*%
D28*
%TO.C,C63*%
X191187500Y-106390000D03*
X189112500Y-106390000D03*
%TD*%
D12*
%TO.C,R78*%
X76167700Y-108059000D03*
X76167700Y-110059000D03*
%TD*%
D15*
%TO.C,R28*%
X94361000Y-86582000D03*
X94361000Y-84582000D03*
%TD*%
D18*
%TO.C,R49*%
X132870200Y-147944000D03*
X134870200Y-147944000D03*
%TD*%
%TO.C,R34*%
X64575700Y-102575000D03*
X66575700Y-102575000D03*
%TD*%
%TO.C,R61*%
X199403500Y-120030400D03*
X201403500Y-120030400D03*
%TD*%
D11*
%TO.C,C46*%
X88926700Y-83683000D03*
X91001700Y-83683000D03*
%TD*%
D12*
%TO.C,R14*%
X66064700Y-72679000D03*
X66064700Y-74679000D03*
%TD*%
D15*
%TO.C,R36*%
X157775700Y-148247000D03*
X157775700Y-146247000D03*
%TD*%
D29*
%TO.C,J9*%
X181178700Y-45205000D03*
X181678700Y-45205000D03*
X182178700Y-45205000D03*
X182678700Y-45205000D03*
X183178700Y-45205000D03*
X183678700Y-45205000D03*
X184178700Y-45205000D03*
X184678700Y-45205000D03*
X185178700Y-45205000D03*
X185678700Y-45205000D03*
X186178700Y-45205000D03*
X186678700Y-45205000D03*
X187178700Y-45205000D03*
X187678700Y-45205000D03*
X188178700Y-45205000D03*
X188678700Y-45205000D03*
X189178700Y-45205000D03*
X189678700Y-45205000D03*
X190178700Y-45205000D03*
D30*
X177628700Y-38485000D03*
D31*
X177628700Y-44445000D03*
D30*
X193728700Y-38485000D03*
D31*
X193728700Y-44445000D03*
%TD*%
D15*
%TO.C,R20*%
X115862900Y-102005800D03*
X115862900Y-100005800D03*
%TD*%
D32*
%TO.C,U1*%
X145005700Y-96771500D03*
X145005700Y-97271500D03*
X145005700Y-97771500D03*
X145005700Y-98271500D03*
X145005700Y-98771500D03*
X145005700Y-99271500D03*
X145005700Y-99771500D03*
X145005700Y-100271500D03*
X145005700Y-100771500D03*
X145005700Y-101271500D03*
X145005700Y-101771500D03*
X145005700Y-102271500D03*
X145005700Y-102771500D03*
X145005700Y-103271500D03*
X145005700Y-103771500D03*
X145005700Y-104271500D03*
X145005700Y-104771500D03*
X145005700Y-105271500D03*
X145005700Y-105771500D03*
X145005700Y-106271500D03*
X145005700Y-106771500D03*
X145005700Y-107271500D03*
X145005700Y-107771500D03*
X145005700Y-108271500D03*
X145005700Y-108771500D03*
X145005700Y-109271500D03*
X145005700Y-109771500D03*
X145005700Y-110271500D03*
X145005700Y-110771500D03*
X145005700Y-111271500D03*
X145005700Y-111771500D03*
X145005700Y-112271500D03*
X145005700Y-112771500D03*
X145005700Y-113271500D03*
X145005700Y-113771500D03*
X145005700Y-114271500D03*
D33*
X146918200Y-116184000D03*
X147418200Y-116184000D03*
X147918200Y-116184000D03*
X148418200Y-116184000D03*
X148918200Y-116184000D03*
X149418200Y-116184000D03*
X149918200Y-116184000D03*
X150418200Y-116184000D03*
X150918200Y-116184000D03*
X151418200Y-116184000D03*
X151918200Y-116184000D03*
X152418200Y-116184000D03*
X152918200Y-116184000D03*
X153418200Y-116184000D03*
X153918200Y-116184000D03*
X154418200Y-116184000D03*
X154918200Y-116184000D03*
X155418200Y-116184000D03*
X155918200Y-116184000D03*
X156418200Y-116184000D03*
X156918200Y-116184000D03*
X157418200Y-116184000D03*
X157918200Y-116184000D03*
X158418200Y-116184000D03*
X158918200Y-116184000D03*
X159418200Y-116184000D03*
X159918200Y-116184000D03*
X160418200Y-116184000D03*
X160918200Y-116184000D03*
X161418200Y-116184000D03*
X161918200Y-116184000D03*
X162418200Y-116184000D03*
X162918200Y-116184000D03*
X163418200Y-116184000D03*
X163918200Y-116184000D03*
X164418200Y-116184000D03*
D32*
X166330700Y-114271500D03*
X166330700Y-113771500D03*
X166330700Y-113271500D03*
X166330700Y-112771500D03*
X166330700Y-112271500D03*
X166330700Y-111771500D03*
X166330700Y-111271500D03*
X166330700Y-110771500D03*
X166330700Y-110271500D03*
X166330700Y-109771500D03*
X166330700Y-109271500D03*
X166330700Y-108771500D03*
X166330700Y-108271500D03*
X166330700Y-107771500D03*
X166330700Y-107271500D03*
X166330700Y-106771500D03*
X166330700Y-106271500D03*
X166330700Y-105771500D03*
X166330700Y-105271500D03*
X166330700Y-104771500D03*
X166330700Y-104271500D03*
X166330700Y-103771500D03*
X166330700Y-103271500D03*
X166330700Y-102771500D03*
X166330700Y-102271500D03*
X166330700Y-101771500D03*
X166330700Y-101271500D03*
X166330700Y-100771500D03*
X166330700Y-100271500D03*
X166330700Y-99771500D03*
X166330700Y-99271500D03*
X166330700Y-98771500D03*
X166330700Y-98271500D03*
X166330700Y-97771500D03*
X166330700Y-97271500D03*
X166330700Y-96771500D03*
D33*
X164418200Y-94859000D03*
X163918200Y-94859000D03*
X163418200Y-94859000D03*
X162918200Y-94859000D03*
X162418200Y-94859000D03*
X161918200Y-94859000D03*
X161418200Y-94859000D03*
X160918200Y-94859000D03*
X160418200Y-94859000D03*
X159918200Y-94859000D03*
X159418200Y-94859000D03*
X158918200Y-94859000D03*
X158418200Y-94859000D03*
X157918200Y-94859000D03*
X157418200Y-94859000D03*
X156918200Y-94859000D03*
X156418200Y-94859000D03*
X155918200Y-94859000D03*
X155418200Y-94859000D03*
X154918200Y-94859000D03*
X154418200Y-94859000D03*
X153918200Y-94859000D03*
X153418200Y-94859000D03*
X152918200Y-94859000D03*
X152418200Y-94859000D03*
X151918200Y-94859000D03*
X151418200Y-94859000D03*
X150918200Y-94859000D03*
X150418200Y-94859000D03*
X149918200Y-94859000D03*
X149418200Y-94859000D03*
X148918200Y-94859000D03*
X148418200Y-94859000D03*
X147918200Y-94859000D03*
X147418200Y-94859000D03*
X146918200Y-94859000D03*
%TD*%
D19*
%TO.C,D6*%
X119638500Y-114899600D03*
X121688500Y-114899600D03*
%TD*%
D12*
%TO.C,R64*%
X106553000Y-109744000D03*
X106553000Y-111744000D03*
%TD*%
%TO.C,R47*%
X123952000Y-129826000D03*
X123952000Y-131826000D03*
%TD*%
D28*
%TO.C,C54*%
X165416200Y-44845000D03*
X163341200Y-44845000D03*
%TD*%
D19*
%TO.C,D7*%
X119663900Y-120589200D03*
X121713900Y-120589200D03*
%TD*%
D24*
%TO.C,C32*%
X90081900Y-90795000D03*
X88481700Y-90795000D03*
%TD*%
D18*
%TO.C,R44*%
X184493700Y-141595000D03*
X186493700Y-141595000D03*
%TD*%
D34*
%TO.C,C36*%
X97409000Y-88011000D03*
X97409000Y-85136000D03*
%TD*%
D12*
%TO.C,R48*%
X118872000Y-129826000D03*
X118872000Y-131826000D03*
%TD*%
%TO.C,R46*%
X129032000Y-129826000D03*
X129032000Y-131826000D03*
%TD*%
D15*
%TO.C,R5*%
X112903000Y-54197000D03*
X112903000Y-52197000D03*
%TD*%
D18*
%TO.C,R30*%
X78630000Y-82980000D03*
X80630000Y-82980000D03*
%TD*%
D12*
%TO.C,R75*%
X76675700Y-117711000D03*
X76675700Y-119711000D03*
%TD*%
D22*
%TO.C,C48*%
X85217000Y-94742000D03*
X85217000Y-96817000D03*
%TD*%
D15*
%TO.C,R18*%
X108077000Y-101981000D03*
X108077000Y-99981000D03*
%TD*%
D12*
%TO.C,R25*%
X110871000Y-86519000D03*
X110871000Y-88519000D03*
%TD*%
%TO.C,R45*%
X134112000Y-129826000D03*
X134112000Y-131826000D03*
%TD*%
D34*
%TO.C,C33*%
X99829700Y-70538500D03*
X99829700Y-67663500D03*
%TD*%
D18*
%TO.C,R37*%
X63575700Y-79745000D03*
X65575700Y-79745000D03*
%TD*%
D15*
%TO.C,R24*%
X100965000Y-101949000D03*
X100965000Y-99949000D03*
%TD*%
D23*
%TO.C,FB2*%
X102235000Y-88011000D03*
X102235000Y-85961000D03*
%TD*%
D15*
%TO.C,R11*%
X120650000Y-84582000D03*
X120650000Y-82582000D03*
%TD*%
D18*
%TO.C,R60*%
X92214200Y-147944000D03*
X94214200Y-147944000D03*
%TD*%
D12*
%TO.C,R43*%
X161417000Y-129683000D03*
X161417000Y-131683000D03*
%TD*%
%TO.C,R4*%
X146050000Y-129667000D03*
X146050000Y-131667000D03*
%TD*%
%TO.C,R53*%
X108978200Y-128672000D03*
X108978200Y-130672000D03*
%TD*%
D35*
%TO.C,U7*%
X184625700Y-127614000D03*
X185575700Y-127614000D03*
X186525700Y-127614000D03*
X186525700Y-125339000D03*
X185575700Y-125339000D03*
X184625700Y-125339000D03*
%TD*%
D12*
%TO.C,R74*%
X81755700Y-117695000D03*
X81755700Y-119695000D03*
%TD*%
D36*
%TO.C,C37*%
X100330000Y-41529000D03*
X100330000Y-44654000D03*
%TD*%
D37*
%TO.C,C34*%
X77089000Y-59309000D03*
X83189000Y-59309000D03*
%TD*%
D18*
%TO.C,R50*%
X127806200Y-147944000D03*
X129806200Y-147944000D03*
%TD*%
D15*
%TO.C,R13*%
X130048000Y-81375000D03*
X130048000Y-79375000D03*
%TD*%
D12*
%TO.C,R79*%
X71087700Y-108059000D03*
X71087700Y-110059000D03*
%TD*%
D11*
%TO.C,C53*%
X78380300Y-91455400D03*
X80455300Y-91455400D03*
%TD*%
D12*
%TO.C,R71*%
X71595700Y-127363000D03*
X71595700Y-129363000D03*
%TD*%
D22*
%TO.C,C62*%
X123571000Y-47752000D03*
X123571000Y-49827000D03*
%TD*%
D38*
%TO.C,U12*%
X67710200Y-70057000D03*
X67710200Y-69107000D03*
X67710200Y-68157000D03*
X65435200Y-68157000D03*
X65435200Y-69107000D03*
X65435200Y-70057000D03*
%TD*%
D15*
%TO.C,R81*%
X115825700Y-115945000D03*
X115825700Y-113945000D03*
%TD*%
D14*
%TO.C,C60*%
X98679000Y-102024000D03*
X98679000Y-99949000D03*
%TD*%
D22*
%TO.C,C50*%
X125730000Y-47752000D03*
X125730000Y-49827000D03*
%TD*%
D15*
%TO.C,R38*%
X163363700Y-148247000D03*
X163363700Y-146247000D03*
%TD*%
D14*
%TO.C,C49*%
X99822000Y-88054000D03*
X99822000Y-85979000D03*
%TD*%
D15*
%TO.C,R40*%
X171076200Y-148212000D03*
X171076200Y-146212000D03*
%TD*%
D35*
%TO.C,U5*%
X187201300Y-98333300D03*
X188151300Y-98333300D03*
X189101300Y-98333300D03*
X189101300Y-96058300D03*
X188151300Y-96058300D03*
X187201300Y-96058300D03*
%TD*%
D12*
%TO.C,R65*%
X101473000Y-109744000D03*
X101473000Y-111744000D03*
%TD*%
D39*
%TO.C,C35*%
X169041200Y-44845000D03*
X171916200Y-44845000D03*
%TD*%
D15*
%TO.C,R19*%
X110617000Y-101981000D03*
X110617000Y-99981000D03*
%TD*%
D12*
%TO.C,R69*%
X81755700Y-127331000D03*
X81755700Y-129331000D03*
%TD*%
D40*
%TO.C,D5*%
X117856000Y-108905200D03*
X117856000Y-110955200D03*
%TD*%
D15*
%TO.C,R10*%
X115570000Y-84582000D03*
X115570000Y-82582000D03*
%TD*%
%TO.C,R21*%
X119982900Y-102065800D03*
X119982900Y-100065800D03*
%TD*%
D12*
%TO.C,R73*%
X71595700Y-138031000D03*
X71595700Y-140031000D03*
%TD*%
D41*
%TO.C,R6*%
X119095700Y-73025000D03*
X117095700Y-73025000D03*
%TD*%
D42*
%TO.C,C31*%
X139491700Y-104372999D03*
X140981700Y-104372999D03*
%TD*%
D14*
%TO.C,C42*%
X96901000Y-69630500D03*
X96901000Y-67555500D03*
%TD*%
D15*
%TO.C,R41*%
X176156200Y-148212000D03*
X176156200Y-146212000D03*
%TD*%
%TO.C,R23*%
X103378000Y-101949000D03*
X103378000Y-99949000D03*
%TD*%
D12*
%TO.C,R55*%
X98310200Y-128672000D03*
X98310200Y-130672000D03*
%TD*%
%TO.C,R33*%
X87249000Y-100473000D03*
X87249000Y-102473000D03*
%TD*%
D28*
%TO.C,C29*%
X139803200Y-111405000D03*
X137728200Y-111405000D03*
%TD*%
D14*
%TO.C,C43*%
X96393000Y-102024000D03*
X96393000Y-99949000D03*
%TD*%
D22*
%TO.C,C44*%
X91948000Y-98530500D03*
X91948000Y-100605500D03*
%TD*%
D12*
%TO.C,R67*%
X91313000Y-109633000D03*
X91313000Y-111633000D03*
%TD*%
%TO.C,R16*%
X72160700Y-68107000D03*
X72160700Y-70107000D03*
%TD*%
D43*
%TO.C,C39*%
X191135000Y-104140000D03*
X188260000Y-104140000D03*
%TD*%
D41*
%TO.C,R8*%
X114173000Y-73025000D03*
X112173000Y-73025000D03*
%TD*%
D44*
%TO.C,Q1*%
X75989200Y-68804000D03*
X75989200Y-70104000D03*
X78649200Y-69454000D03*
%TD*%
D41*
%TO.C,R17*%
X73160700Y-73679000D03*
X71160700Y-73679000D03*
%TD*%
D11*
%TO.C,C47*%
X88952500Y-86950000D03*
X91027500Y-86950000D03*
%TD*%
D41*
%TO.C,R32*%
X84980000Y-87030000D03*
X82980000Y-87030000D03*
%TD*%
D12*
%TO.C,R70*%
X76675700Y-127347000D03*
X76675700Y-129347000D03*
%TD*%
D14*
%TO.C,C61*%
X130683000Y-43942000D03*
X130683000Y-41867000D03*
%TD*%
D15*
%TO.C,R80*%
X114681000Y-110871000D03*
X114681000Y-108871000D03*
%TD*%
D12*
%TO.C,R72*%
X76675700Y-138031000D03*
X76675700Y-140031000D03*
%TD*%
D41*
%TO.C,R7*%
X109093000Y-73025000D03*
X107093000Y-73025000D03*
%TD*%
D45*
%TO.C,F1*%
X67256000Y-45339000D03*
X70231000Y-45339000D03*
%TD*%
D46*
%TO.C,SW3*%
X132875700Y-87911201D03*
X130375700Y-87911201D03*
X127875700Y-87911201D03*
X127875700Y-98911199D03*
X130375700Y-98911199D03*
X132875700Y-98911199D03*
%TD*%
D22*
%TO.C,C30*%
X83820000Y-67775000D03*
X83820000Y-69850000D03*
%TD*%
D38*
%TO.C,U8*%
X81485200Y-96257000D03*
X81485200Y-95307000D03*
X81485200Y-94357000D03*
X79210200Y-94357000D03*
X79210200Y-95307000D03*
X79210200Y-96257000D03*
%TD*%
D47*
%TO.C,U13*%
X187572100Y-111779100D03*
X189472100Y-111779100D03*
X188522100Y-108779100D03*
%TD*%
D48*
%TO.C,U6*%
X94606200Y-92855500D03*
X94606200Y-93830500D03*
X95581200Y-92855500D03*
X95581200Y-93830500D03*
D49*
X93106200Y-92093000D03*
X93106200Y-92593000D03*
X93106200Y-93093000D03*
X93106200Y-93593000D03*
X93106200Y-94093000D03*
X93106200Y-94593000D03*
D50*
X93843700Y-95330500D03*
X94343700Y-95330500D03*
X94843700Y-95330500D03*
X95343700Y-95330500D03*
X95843700Y-95330500D03*
X96343700Y-95330500D03*
D49*
X97081200Y-94593000D03*
X97081200Y-94093000D03*
X97081200Y-93593000D03*
X97081200Y-93093000D03*
X97081200Y-92593000D03*
X97081200Y-92093000D03*
D50*
X96343700Y-91355500D03*
X95843700Y-91355500D03*
X95343700Y-91355500D03*
X94843700Y-91355500D03*
X94343700Y-91355500D03*
X93843700Y-91355500D03*
%TD*%
D41*
%TO.C,R15*%
X67080700Y-64535000D03*
X65080700Y-64535000D03*
%TD*%
D51*
%TO.C,U4*%
X128752000Y-49951800D03*
X129702000Y-49951800D03*
X130652000Y-49951800D03*
D52*
X130652000Y-47081800D03*
X129702000Y-47081800D03*
X128752000Y-47081800D03*
%TD*%
D18*
%TO.C,R58*%
X102374200Y-147944000D03*
X104374200Y-147944000D03*
%TD*%
D15*
%TO.C,R3*%
X150052200Y-148450000D03*
X150052200Y-146450000D03*
%TD*%
D35*
%TO.C,U10*%
X184559700Y-137652500D03*
X185509700Y-137652500D03*
X186459700Y-137652500D03*
X186459700Y-135377500D03*
X185509700Y-135377500D03*
X184559700Y-135377500D03*
%TD*%
D53*
%TO.C,SW1*%
X128088000Y-110744000D03*
X128088000Y-102744000D03*
X132588000Y-110744000D03*
X132588000Y-102744000D03*
%TD*%
D15*
%TO.C,R82*%
X115825700Y-121765000D03*
X115825700Y-119765000D03*
%TD*%
%TO.C,R87*%
X136525000Y-102711000D03*
X136525000Y-100711000D03*
%TD*%
D12*
%TO.C,R35*%
X148590000Y-129667000D03*
X148590000Y-131667000D03*
%TD*%
D18*
%TO.C,R51*%
X122726200Y-147944000D03*
X124726200Y-147944000D03*
%TD*%
D54*
%TO.C,J1*%
X61138700Y-68315000D03*
X61138700Y-68965000D03*
X61138700Y-69615000D03*
X61138700Y-70265000D03*
X61138700Y-70915000D03*
%TD*%
D41*
%TO.C,R29*%
X85433700Y-83683000D03*
X83433700Y-83683000D03*
%TD*%
M02*
