M48
; DRILL file {KiCad 7.0.2} date Tue Aug  1 13:01:49 2023
; FORMAT={-:-/ absolute / inch / decimal}
; #@! TF.CreationDate,2023-08-01T13:01:49+02:00
; #@! TF.GenerationSoftware,Kicad,Pcbnew,7.0.2
; #@! TF.FileFunction,Plated,1,4,PTH
FMAT,2
INCH
; #@! TA.AperFunction,Plated,PTH,ComponentDrill
T1C0.0079
; #@! TA.AperFunction,Plated,PTH,ViaDrill
T2C0.0120
; #@! TA.AperFunction,Plated,PTH,ViaDrill
T3C0.0150
; #@! TA.AperFunction,Plated,PTH,ViaDrill
T4C0.0157
; #@! TA.AperFunction,Plated,PTH,ComponentDrill
T5C0.0197
; #@! TA.AperFunction,Plated,PTH,ViaDrill
T6C0.0200
; #@! TA.AperFunction,Plated,PTH,ComponentDrill
T7C0.0217
; #@! TA.AperFunction,Plated,PTH,ViaDrill
T8C0.0220
; #@! TA.AperFunction,Plated,PTH,ViaDrill
T9C0.0250
; #@! TA.AperFunction,Plated,PTH,ComponentDrill
T10C0.0315
; #@! TA.AperFunction,Plated,PTH,ComponentDrill
T11C0.0331
; #@! TA.AperFunction,Plated,PTH,ComponentDrill
T12C0.0350
; #@! TA.AperFunction,Plated,PTH,ComponentDrill
T13C0.0394
; #@! TA.AperFunction,Plated,PTH,ViaDrill
T14C0.0400
; #@! TA.AperFunction,Plated,PTH,ComponentDrill
T15C0.0402
; #@! TA.AperFunction,Plated,PTH,ComponentDrill
T16C0.0472
; #@! TA.AperFunction,Plated,PTH,ComponentDrill
T17C0.0512
; #@! TA.AperFunction,Plated,PTH,ComponentDrill
T18C0.0618
; #@! TA.AperFunction,Plated,PTH,ComponentDrill
T19C0.0670
; #@! TA.AperFunction,Plated,PTH,ComponentDrill
T20C0.0937
; #@! TA.AperFunction,Plated,PTH,ComponentDrill
T21C0.1260
; #@! TA.AperFunction,Plated,PTH,ComponentDrill
T22C0.1280
%
G90
G05
T1
X3.7055Y-3.6365
X3.7055Y-3.6749
X3.7055Y-3.7133
X3.7438Y-3.6365
X3.7438Y-3.6749
X3.7438Y-3.7133
X3.7822Y-3.6365
X3.7822Y-3.6749
X3.7822Y-3.7133
T2
X3.195Y-3.4
X3.27Y-3.82
X3.3Y-3.69
X3.975Y-3.885
X4.16Y-3.885
X4.2Y-3.485
X4.255Y-4.085
X4.355Y-3.88
X4.355Y-4.095
X4.435Y-3.485
X4.54Y-3.815
X4.75Y-3.4
X4.75Y-3.625
X5.195Y-3.205
X7.145Y-4.485
X7.145Y-5.26
X7.17Y-5.47
X7.1702Y-4.63
X7.215Y-4.63
X7.265Y-4.64
X7.3409Y-5.4938
X7.41Y-5.375
T3
X6.0401Y-3.8099
X6.095Y-3.82
X6.255Y-3.655
X6.295Y-3.8
X6.4651Y-3.8099
T4
X2.36Y-1.785
X2.36Y-1.92
X2.4157Y-5.6624
X2.44Y-2.5
X2.495Y-3.625
X2.507Y-2.9963
X2.5228Y-3.2301
X2.5622Y-3.5254
X2.5897Y-3.2222
X2.595Y-2.005
X2.6551Y-5.1108
X2.71Y-5.9
X2.73Y-2.7207
X2.735Y-2.28
X2.735Y-2.415
X2.785Y-3.14
X2.83Y-6.01
X2.9098Y-4.2067
X2.924Y-4.5884
X2.9335Y-3.25
X2.995Y-6.01
X3.02Y-3.75
X3.0209Y-3.6009
X3.0406Y-3.1193
X3.055Y-3.515
X3.1402Y-3.328
X3.155Y-3.375
X3.205Y-1.65
X3.205Y-1.835
X3.27Y-3.7533
X3.29Y-3.16
X3.295Y-4.5546
X3.3Y-3.625
X3.302Y-3.3555
X3.35Y-3.9654
X3.355Y-3.66
X3.355Y-3.87
X3.3905Y-5.0632
X3.4035Y-4.2337
X3.405Y-5.455
X3.4051Y-4.4419
X3.41Y-3.5194
X3.425Y-5.68
X3.435Y-3.62
X3.4631Y-2.8248
X3.48Y-3.63
X3.57Y-5.43
X3.5819Y-2.9406
X3.5842Y-3.7175
X3.585Y-3.3659
X3.59Y-3.795
X3.63Y-1.85
X3.6319Y-3.5994
X3.635Y-2.25
X3.6375Y-3.5606
X3.6598Y-4.6396
X3.6708Y-2.8012
X3.7475Y-3.8375
X3.75Y-3.48
X3.8Y-2.25
X3.85Y-3.14
X3.885Y-3.76
X3.91Y-3.555
X3.93Y-3.305
X3.94Y-1.48
X3.97Y-2.05
X3.97Y-5.435
X4.0212Y-4.6526
X4.05Y-2.665
X4.15Y-3.485
X4.185Y-3.725
X4.216Y-4.736
X4.24Y-3.11
X4.24Y-3.26
X4.31Y-3.785
X4.35Y-2.52
X4.355Y-2.945
X4.36Y-3.69
X4.405Y-1.77
X4.41Y-4.505
X4.415Y-3.625
X4.44Y-5.725
X4.455Y-1.935
X4.455Y-4.015
X4.56Y-4.9
X4.58Y-4.1976
X4.61Y-2.945
X4.625Y-2.135
X4.635Y-3.754
X4.64Y-4.227
X4.65Y-3.23
X4.65Y-3.515
X4.68Y-4.44
X4.7185Y-4.0716
X4.7475Y-4.1026
X4.7775Y-4.1326
X4.7783Y-3.6766
X4.78Y-5.415
X4.8125Y-4.1656
X4.8132Y-3.7967
X4.85Y-3.4
X4.94Y-2.3
X4.9913Y-3.6825
X4.9956Y-3.7781
X5.02Y-4.57
X5.025Y-2.93
X5.045Y-4.27
X5.055Y-1.57
X5.105Y-2.045
X5.105Y-4.675
X5.115Y-3.33
X5.135Y-4.42
X5.145Y-1.57
X5.175Y-5.42
X5.195Y-3.795
X5.22Y-3.365
X5.23Y-4.595
X5.235Y-3.08
X5.28Y-3.655
X5.285Y-4.4486
X5.29Y-3.335
X5.305Y-4.595
X5.315Y-2.54
X5.34Y-3.545
X5.43Y-3.005
X5.4634Y-1.9466
X5.465Y-1.71
X5.47Y-5.65
X5.47Y-5.875
X5.485Y-3.8876
X5.485Y-3.94
X5.509Y-3.9844
X5.51Y-3.375
X5.515Y-3.85
X5.515Y-5.155
X5.545Y-3.8206
X5.55Y-3.635
X5.555Y-3.715
X5.61Y-4.065
X5.61Y-4.26
X5.6112Y-4.4064
X5.615Y-4.4508
X5.63Y-3.94
X5.637Y-4.1045
X5.64Y-4.185
X5.695Y-3.505
X5.75Y-5.045
X5.775Y-4.68
X5.7772Y-3.8697
X5.8081Y-3.2809
X5.8153Y-3.8197
X5.825Y-4.68
X5.8485Y-3.0503
X5.855Y-4.08
X5.86Y-3.605
X5.875Y-3.435
X5.88Y-2.795
X5.88Y-4.42
X5.895Y-2.455
X5.8994Y-3.2486
X5.9Y-3.5467
X5.92Y-1.905
X5.925Y-4.48
X5.9433Y-4.2368
X5.9448Y-4.0986
X5.945Y-4.325
X5.95Y-5.425
X5.9682Y-3.133
X5.995Y-3.61
X6.01Y-3.935
X6.01Y-3.98
X6.02Y-4.49
X6.045Y-5.14
X6.05Y-5.79
X6.0638Y-4.2402
X6.08Y-4.665
X6.1098Y-4.3382
X6.1389Y-4.1002
X6.1436Y-3.9636
X6.195Y-4.495
X6.255Y-4.715
X6.255Y-5.045
X6.275Y-4.495
X6.3Y-3.395
X6.3141Y-3.9636
X6.3173Y-4.0939
X6.3173Y-4.225
X6.3695Y-3.4606
X6.415Y-4.415
X6.4255Y-3.4226
X6.4535Y-4.6647
X6.455Y-5.43
X6.49Y-4.0655
X6.535Y-4.845
X6.56Y-5.135
X6.575Y-5.765
X6.5783Y-3.7234
X6.5839Y-4.6244
X6.6263Y-4.1793
X6.6285Y-3.4176
X6.6305Y-3.3766
X6.64Y-3.865
X6.645Y-3.805
X6.6527Y-3.6608
X6.66Y-3.465
X6.6715Y-3.9606
X6.6744Y-4.6008
X6.675Y-4.3
X6.685Y-3.255
X6.7031Y-4.5496
X6.722Y-3.7289
X6.725Y-5.43
X6.7275Y-2.0175
X6.759Y-3.515
X6.76Y-4.3
X6.76Y-5.045
X6.77Y-1.48
X6.7708Y-3.23
X6.775Y-1.885
X6.7771Y-3.9332
X6.8062Y-3.209
X6.82Y-1.885
X6.8213Y-3.2466
X6.84Y-1.765
X6.8535Y-3.1947
X6.8692Y-3.364
X6.87Y-2.15
X6.885Y-3.1624
X6.9Y-4.675
X6.915Y-2.15
X6.9204Y-3.1356
X6.9215Y-3.5736
X6.9559Y-3.0726
X6.9598Y-3.1199
X6.96Y-2.15
X6.96Y-5.375
X6.9755Y-3.364
X7.01Y-2.15
X7.025Y-3.085
X7.0415Y-3.3536
X7.055Y-3.12
X7.0566Y-1.875
X7.07Y-4.295
X7.09Y-2.615
X7.09Y-3.085
X7.1094Y-2.0096
X7.115Y-5.575
X7.12Y-3.115
X7.12Y-3.3674
X7.124Y-4.0453
X7.1248Y-3.9476
X7.1474Y-3.145
X7.1531Y-1.66
X7.1685Y-3.3646
X7.18Y-3.11
X7.2078Y-3.3443
X7.21Y-2.135
X7.21Y-3.145
X7.2122Y-1.66
X7.23Y-3.21
X7.24Y-4.83
X7.2702Y-1.66
X7.32Y-3.195
X7.3299Y-1.6601
X7.33Y-3.245
X7.3655Y-3.1586
X7.375Y-2.615
X7.3835Y-2.8816
X7.3875Y-2.135
X7.3922Y-3.2149
X7.3955Y-3.3384
X7.3955Y-2.9596
X7.3965Y-3.1106
X7.4005Y-3.0376
X7.415Y-4.02
X7.4225Y-2.9136
X7.4324Y-1.6576
X7.435Y-5.785
X7.4362Y-2.135
X7.4365Y-3.0656
X7.4415Y-3.1496
X7.4455Y-2.9846
X7.448Y-1.9073
X7.46Y-3.3674
X7.465Y-3.935
X7.482Y-2.135
X7.485Y-2.8816
X7.4994Y-3.34
X7.5235Y-2.9136
X7.5525Y-2.9426
X7.5795Y-2.9846
X7.6Y-6.075
X7.6075Y-3.0216
X7.6385Y-3.0526
X7.645Y-4.56
X7.65Y-5.785
X7.6665Y-3.0946
X7.6945Y-3.1336
X7.705Y-3.805
X7.72Y-2.825
X7.7225Y-3.1796
X7.7505Y-3.2146
X7.76Y-1.515
X7.765Y-5.08
X7.765Y-5.305
X7.77Y-2.3
X7.7795Y-3.2456
X7.78Y-1.75
X7.89Y-3.02
X7.965Y-2.525
X8.01Y-3.985
X8.01Y-5.835
X8.05Y-4.615
X8.07Y-5.305
T5
X2.2693Y-1.5228
X2.2693Y-6.2079
X2.297Y-1.456
X2.297Y-1.5896
X2.297Y-6.1411
X2.297Y-6.2747
X2.3638Y-1.4283
X2.3638Y-1.6173
X2.3638Y-6.1134
X2.3638Y-6.3024
X2.4306Y-1.456
X2.4306Y-1.5896
X2.4306Y-6.1411
X2.4306Y-6.2747
X2.4583Y-1.5228
X2.4583Y-6.2079
X8.037Y-1.5228
X8.037Y-6.2079
X8.0647Y-1.456
X8.0647Y-1.5896
X8.0647Y-6.1411
X8.0647Y-6.2747
X8.1315Y-1.4283
X8.1315Y-1.6173
X8.1315Y-6.1134
X8.1315Y-6.3024
X8.1983Y-1.456
X8.1983Y-1.5896
X8.1983Y-6.1411
X8.1983Y-6.2747
X8.226Y-1.5228
X8.226Y-6.2079
T6
X2.5258Y-2.7348
X2.71Y-4.86
X2.71Y-5.25
X2.71Y-5.67
X3.055Y-3.79
X3.2936Y-5.6786
X3.295Y-4.87
X3.295Y-5.255
X3.535Y-5.825
X3.7092Y-5.8942
X3.91Y-5.895
X4.1092Y-5.8942
X4.31Y-5.895
X4.71Y-5.895
X4.91Y-5.895
X5.1105Y-5.8945
X5.3099Y-5.8949
X5.645Y-4.38
X7.155Y-3.64
X7.305Y-5.09
X7.305Y-5.475
X7.385Y-5.095
X7.405Y-3.7
X7.4165Y-5.2846
X7.6679Y-3.6396
X7.7837Y-3.6439
X7.9418Y-3.5633
T8
X7.2715Y-3.35
T9
X2.8035Y-2.835
X2.9035Y-3.0046
X3.1335Y-4.4946
X3.1335Y-4.8746
X3.1335Y-5.255
X3.1335Y-5.6846
X3.715Y-3.26
X3.715Y-4.015
X4.025Y-3.31
X5.44Y-4.045
X5.45Y-3.7863
X6.5Y-4.66
X6.635Y-4.26
X7.305Y-4.865
T10
X3.035Y-1.635
X3.035Y-2.035
X3.135Y-2.035
X3.4965Y-4.5171
X3.4965Y-4.8171
X3.5705Y-5.3246
X3.5705Y-5.6246
X3.5965Y-4.5171
X3.5965Y-4.8171
X3.635Y-1.635
X3.635Y-2.035
X3.6705Y-5.3246
X3.6705Y-5.6246
X3.6965Y-4.5171
X3.6965Y-4.8171
X3.735Y-1.635
X3.735Y-2.035
X3.7705Y-5.3246
X3.7705Y-5.6246
X3.7965Y-4.5171
X3.7965Y-4.8171
X3.8705Y-5.3246
X3.8705Y-5.6246
X3.8965Y-4.5171
X3.8965Y-4.8171
X3.9705Y-5.3246
X3.9705Y-5.6246
X3.9965Y-4.5171
X3.9965Y-4.8171
X4.0705Y-5.3246
X4.0705Y-5.6246
X4.0965Y-4.5171
X4.0965Y-4.8171
X4.1705Y-5.3246
X4.1705Y-5.6246
X4.1965Y-4.5171
X4.1965Y-4.8171
X4.2705Y-5.3246
X4.2705Y-5.6246
X4.5799Y-5.315
X4.5799Y-5.615
X4.6799Y-5.315
X4.6799Y-5.615
X4.7799Y-5.315
X4.7799Y-5.615
X4.8799Y-5.315
X4.8799Y-5.615
X4.9799Y-5.315
X4.9799Y-5.615
X5.0799Y-5.315
X5.0799Y-5.615
X5.1799Y-5.315
X5.1799Y-5.615
X5.2799Y-5.315
X5.2799Y-5.615
T11
X5.6516Y-5.2771
X5.6516Y-5.5771
X5.7516Y-5.2771
X5.7516Y-5.5771
X5.8516Y-5.2771
X5.8516Y-5.5771
X5.9516Y-5.2771
X5.9516Y-5.5771
X6.155Y-5.28
X6.155Y-5.58
X6.255Y-5.28
X6.255Y-5.58
X6.355Y-5.28
X6.355Y-5.58
X6.455Y-5.28
X6.455Y-5.58
X6.66Y-5.28
X6.66Y-5.58
X6.76Y-5.28
X6.76Y-5.58
X6.86Y-5.28
X6.86Y-5.58
X6.96Y-5.28
X6.96Y-5.58
T12
X2.8335Y-3.3996
X2.8335Y-3.4996
X2.8335Y-3.5996
X2.8335Y-3.6996
X2.9335Y-3.4496
X2.9335Y-3.5496
X2.9335Y-3.6496
X2.9335Y-3.7496
X7.5335Y-4.9996
X7.5335Y-5.0996
X7.5335Y-5.1996
X7.5335Y-5.2996
X7.5335Y-5.3996
X7.6335Y-4.9496
X7.6335Y-5.0496
X7.6335Y-5.1496
X7.6335Y-5.2496
X7.6335Y-5.3496
T13
X4.1845Y-2.1319
X4.1845Y-2.2319
X4.1845Y-2.3319
X4.2845Y-2.1319
X4.2845Y-2.2319
X4.2845Y-2.3319
X4.45Y-3.125
X4.55Y-3.125
X4.615Y-2.345
X4.615Y-2.445
X4.65Y-3.125
X4.75Y-3.125
X4.85Y-3.125
X4.95Y-3.125
X5.0368Y-2.5675
X5.0368Y-2.6675
X5.0368Y-2.7675
X5.1368Y-2.5675
X5.1368Y-2.6675
X5.1368Y-2.7675
X5.255Y-2.175
X5.255Y-2.33
X5.3475Y-2.6695
X5.3475Y-2.7695
X5.355Y-2.175
X5.355Y-2.33
X5.6455Y-1.5466
X5.6455Y-1.6466
X5.6455Y-1.7466
X5.6455Y-1.8466
X5.6455Y-1.9466
X5.6455Y-2.0466
X5.6455Y-2.1466
X5.6455Y-2.2466
X5.6455Y-2.3466
X5.6455Y-2.4466
X5.6455Y-2.5466
X5.6455Y-2.6466
X5.6455Y-2.7466
X5.6455Y-2.8466
X5.6455Y-2.9466
X5.6455Y-3.0466
X5.6455Y-3.1466
X5.6455Y-3.2466
X5.6455Y-3.3466
X5.6455Y-3.4466
X5.7455Y-1.5466
X5.7455Y-1.6466
X5.7455Y-1.7466
X5.7455Y-1.8466
X5.7455Y-1.9466
X5.7455Y-2.0466
X5.7455Y-2.1466
X5.7455Y-2.2466
X5.7455Y-2.3466
X5.7455Y-2.4466
X5.7455Y-2.5466
X5.7455Y-2.6466
X5.7455Y-2.7466
X5.7455Y-2.8466
X5.7455Y-2.9466
X5.7455Y-3.0466
X5.7455Y-3.1466
X5.7455Y-3.2466
X5.7455Y-3.3466
X5.7455Y-3.4466
X7.0252Y-4.8591
X7.0252Y-4.9591
X7.0252Y-5.0591
X7.7914Y-3.9868
X7.7914Y-4.0852
X7.7914Y-4.164
X7.7914Y-4.2624
T14
X2.56Y-2.615
X2.71Y-4.495
X3.375Y-2.615
X3.465Y-2.335
X3.6528Y-2.5722
X5.23Y-1.73
X6.26Y-1.555
X6.875Y-2.4
X7.1089Y-4.1518
T15
X2.3906Y-3.3256
X2.3906Y-3.7272
X2.4505Y-3.422
X2.4505Y-3.8236
X7.9839Y-4.9069
X7.9839Y-5.4423
X8.0638Y-4.9069
X8.0638Y-5.4423
T16
X2.4936Y-1.7844
X2.4936Y-1.9222
X2.4936Y-2.2215
X2.4936Y-2.3593
X2.5074Y-4.2557
X2.5074Y-4.3935
X2.5074Y-4.7157
X2.5074Y-4.8535
X2.5074Y-5.1757
X2.5074Y-5.3135
X2.5074Y-5.6057
X2.5074Y-5.7435
X3.1374Y-6.0896
X3.2751Y-6.0896
X3.5625Y-6.0896
X3.7003Y-6.0896
X3.9877Y-6.0896
X4.1255Y-6.0896
X4.1413Y-1.6604
X4.2791Y-1.6604
X4.4169Y-6.0896
X4.5547Y-6.0896
X4.6374Y-1.6604
X4.7751Y-1.6604
X4.846Y-6.0907
X4.9838Y-6.0907
X5.2751Y-6.0896
X5.4129Y-6.0896
X5.9188Y-6.0807
X6.0566Y-6.0807
X6.1944Y-6.0807
X6.4936Y-6.0807
X6.6314Y-6.0807
X6.7692Y-6.0807
X7.0645Y-6.0768
X7.2023Y-6.0768
X7.3401Y-6.0768
T17
X7.133Y-1.5451
X7.4874Y-1.5451
T18
X2.7036Y-3.2646
X2.7036Y-3.8846
X7.7635Y-4.8646
X7.7635Y-5.4846
T19
X5.0935Y-3.6776
T20
X7.8914Y-3.8659
X7.8914Y-4.3833
T21
X2.3638Y-1.5228
X2.3638Y-6.2079
X8.1315Y-1.5228
X8.1315Y-6.2079
T22
X2.5835Y-3.3496
X2.5835Y-3.7996
T5
G00X2.3135Y-2.603
M15
G01X2.2879Y-2.603
M16
G05
G00X2.3135Y-2.8785
M15
G01X2.2879Y-2.8785
M16
G05
T7
G00X2.407Y-2.6364
M15
G01X2.407Y-2.6482
M16
G05
G00X2.407Y-2.8333
M15
G01X2.407Y-2.8451
M16
G05
T0
M30
