%TF.GenerationSoftware,KiCad,Pcbnew,7.0.2*%
%TF.CreationDate,2023-08-01T13:01:46+02:00*%
%TF.ProjectId,jv_thesis,6a765f74-6865-4736-9973-2e6b69636164,rev?*%
%TF.SameCoordinates,Original*%
%TF.FileFunction,Paste,Bot*%
%TF.FilePolarity,Positive*%
%FSLAX46Y46*%
G04 Gerber Fmt 4.6, Leading zero omitted, Abs format (unit mm)*
G04 Created by KiCad (PCBNEW 7.0.2) date 2023-08-01 13:01:46*
%MOMM*%
%LPD*%
G01*
G04 APERTURE LIST*
G04 Aperture macros list*
%AMRoundRect*
0 Rectangle with rounded corners*
0 $1 Rounding radius*
0 $2 $3 $4 $5 $6 $7 $8 $9 X,Y pos of 4 corners*
0 Add a 4 corners polygon primitive as box body*
4,1,4,$2,$3,$4,$5,$6,$7,$8,$9,$2,$3,0*
0 Add four circle primitives for the rounded corners*
1,1,$1+$1,$2,$3*
1,1,$1+$1,$4,$5*
1,1,$1+$1,$6,$7*
1,1,$1+$1,$8,$9*
0 Add four rect primitives between the rounded corners*
20,1,$1+$1,$2,$3,$4,$5,0*
20,1,$1+$1,$4,$5,$6,$7,0*
20,1,$1+$1,$6,$7,$8,$9,0*
20,1,$1+$1,$8,$9,$2,$3,0*%
G04 Aperture macros list end*
%ADD10RoundRect,0.250000X-0.337500X-0.475000X0.337500X-0.475000X0.337500X0.475000X-0.337500X0.475000X0*%
%ADD11RoundRect,0.250000X0.337500X0.475000X-0.337500X0.475000X-0.337500X-0.475000X0.337500X-0.475000X0*%
%ADD12RoundRect,0.250000X0.475000X-0.337500X0.475000X0.337500X-0.475000X0.337500X-0.475000X-0.337500X0*%
%ADD13RoundRect,0.250000X-0.450000X0.325000X-0.450000X-0.325000X0.450000X-0.325000X0.450000X0.325000X0*%
%ADD14RoundRect,0.250000X-0.475000X0.337500X-0.475000X-0.337500X0.475000X-0.337500X0.475000X0.337500X0*%
%ADD15RoundRect,0.250000X-0.350000X-0.450000X0.350000X-0.450000X0.350000X0.450000X-0.350000X0.450000X0*%
G04 APERTURE END LIST*
D10*
%TO.C,C8*%
X144907000Y-106299000D03*
X146982000Y-106299000D03*
%TD*%
D11*
%TO.C,C5*%
X164994500Y-114808000D03*
X162919500Y-114808000D03*
%TD*%
%TO.C,C11*%
X153416000Y-98044000D03*
X151341000Y-98044000D03*
%TD*%
D12*
%TO.C,C2*%
X147955000Y-116586000D03*
X147955000Y-114511000D03*
%TD*%
D11*
%TO.C,C13*%
X158369000Y-96393000D03*
X156294000Y-96393000D03*
%TD*%
%TO.C,C9*%
X166878000Y-108204000D03*
X164803000Y-108204000D03*
%TD*%
D10*
%TO.C,C27*%
X166370000Y-102362000D03*
X168445000Y-102362000D03*
%TD*%
%TO.C,C17*%
X169964900Y-98186400D03*
X172039900Y-98186400D03*
%TD*%
D13*
%TO.C,FB1*%
X138176000Y-111252000D03*
X138176000Y-113302000D03*
%TD*%
D10*
%TO.C,C7*%
X144780000Y-111252000D03*
X146855000Y-111252000D03*
%TD*%
D11*
%TO.C,C6*%
X158369000Y-98552000D03*
X156294000Y-98552000D03*
%TD*%
D14*
%TO.C,C15*%
X138176000Y-115443000D03*
X138176000Y-117518000D03*
%TD*%
D10*
%TO.C,C28*%
X166370000Y-104521000D03*
X168445000Y-104521000D03*
%TD*%
%TO.C,C16*%
X163957000Y-120269000D03*
X166032000Y-120269000D03*
%TD*%
D12*
%TO.C,C12*%
X154432000Y-116205000D03*
X154432000Y-114130000D03*
%TD*%
D14*
%TO.C,C18*%
X136017000Y-111252000D03*
X136017000Y-113327000D03*
%TD*%
D11*
%TO.C,C10*%
X159385000Y-112649000D03*
X157310000Y-112649000D03*
%TD*%
D14*
%TO.C,C4*%
X149098000Y-96985000D03*
X149098000Y-99060000D03*
%TD*%
%TO.C,C55*%
X144780000Y-115443000D03*
X144780000Y-117518000D03*
%TD*%
%TO.C,C14*%
X140335000Y-115443000D03*
X140335000Y-117518000D03*
%TD*%
D10*
%TO.C,C3*%
X144483000Y-100076000D03*
X146558000Y-100076000D03*
%TD*%
D15*
%TO.C,R62*%
X177381700Y-90795000D03*
X179381700Y-90795000D03*
%TD*%
D14*
%TO.C,C56*%
X142621000Y-115443000D03*
X142621000Y-117518000D03*
%TD*%
D11*
%TO.C,C1*%
X164211000Y-98171000D03*
X162136000Y-98171000D03*
%TD*%
M02*
